# xmcd
#
# Track frame offsets:
#	225
#	13174
#	31761
#	40310
#	57604
#	73172
#	86365
#	101736
#	124741
#	139454
#	156621
#	168762
#	185911
#	198486
#
# Disc length: 2878 seconds
#
# Revision: 1
# Processed by: cddbd v1.5.2PL0 Copyright (c) Steve Scherf et al.
# Submitted via: audiograbber 1.83.01
#
DISCID=d20b3b0e
DTITLE=Country pecky - 1
DYEAR=1900
DGENRE=Country
TTITLE0=Little Big Horn
TTITLE1=Lasko, mne ubyva sil
TTITLE2=Aljaska
TTITLE3=Zebra Dan
TTITLE4=Rekni, kde ty kytky jsou
TTITLE5=Oh Ruby
TTITLE6=Cervena reka
TTITLE7=Pampelisky - Jizni eskadrona - Pres plane - Dakota - V zatoce nasi - Qu
TTITLE7=antanamo
TTITLE8=Ave Maria
TTITLE9=Poveste ho vejs
TTITLE10=Severni vitr
TTITLE11=Mariana
TTITLE12=Folsom blues
TTITLE13=Dum u vychazejiciho slunce
EXTD=
EXTT0=
EXTT1=
EXTT2=
EXTT3=
EXTT4=
EXTT5=
EXTT6=
EXTT7=
EXTT8=
EXTT9=
EXTT10=
EXTT11=
EXTT12=
EXTT13=
PLAYORDER=
